<svg width="28" height="28" viewBox="0 0 28 28" fill="none" xmlns="http://www.w3.org/2000/svg">
<g id="globe-alt 1">
<path id="Vector" d="M24.5 14C24.5 19.799 19.799 24.5 14 24.5M24.5 14C24.5 8.20101 19.799 3.5 14 3.5M24.5 14H3.5M14 24.5C8.20101 24.5 3.5 19.799 3.5 14M14 24.5C15.933 24.5 17.5 19.799 17.5 14C17.5 8.20101 15.933 3.5 14 3.5M14 24.5C12.0669 24.5 10.5 19.799 10.5 14C10.5 8.20101 12.0669 3.5 14 3.5M14 3.5C8.20101 3.5 3.5 8.20101 3.5 14" stroke="#273864" stroke-width="2" stroke-linecap="round" stroke-linejoin="round"/>
</g>
</svg>
