<svg width="28" height="28" viewBox="0 0 28 28" fill="none" xmlns="http://www.w3.org/2000/svg">
<g id="clipboard-list 1">
<path id="Vector" d="M10.5 5.83333H8.16668C6.87801 5.83333 5.83334 6.878 5.83334 8.16667V22.1667C5.83334 23.4554 6.87801 24.5 8.16668 24.5H19.8333C21.122 24.5 22.1667 23.4554 22.1667 22.1667V8.16667C22.1667 6.878 21.122 5.83333 19.8333 5.83333H17.5M10.5 5.83333C10.5 7.122 11.5447 8.16667 12.8333 8.16667H15.1667C16.4554 8.16667 17.5 7.122 17.5 5.83333M10.5 5.83333C10.5 4.54467 11.5447 3.5 12.8333 3.5H15.1667C16.4554 3.5 17.5 4.54467 17.5 5.83333M14 14H17.5M14 18.6667H17.5M10.5 14H10.5117M10.5 18.6667H10.5117" stroke="#273864" stroke-width="2" stroke-linecap="round" stroke-linejoin="round"/>
</g>
</svg>
